<svg id="Layer_1" data-name="Layer 1" xmlns="http://www.w3.org/2000/svg" viewBox="0 0 100 100"><defs><style>.cls-1{fill:#231f20;}</style></defs><path class="cls-1" d="M62.47,49.2l15.74-.33V30.69A21.84,21.84,0,0,0,56.37,8.85H48.51A21.84,21.84,0,0,0,26.67,30.69h0V90.51H61a15,15,0,0,0,5.12-.88A9,9,0,0,0,70,87a6.65,6.65,0,0,0,1.52-4.48,5.31,5.31,0,0,0-2-4.38q-2-1.62-7-2.9l-5.73-1.28a38.44,38.44,0,0,1-6.09-2.16,12.47,12.47,0,0,1-4.92-3.84,10.64,10.64,0,0,1-1.93-6.67,9.46,9.46,0,0,1,2.4-6.53,15.19,15.19,0,0,1,6.2-4.12,22.56,22.56,0,0,1,7.92-1.41ZM82.35,54l-22.27.5a13.91,13.91,0,0,0-4.64.78,8.59,8.59,0,0,0-3.64,2.32,5.55,5.55,0,0,0-1.42,3.91A4.89,4.89,0,0,0,51.7,65.1a8.83,8.83,0,0,0,3.5,2.12A45.06,45.06,0,0,0,60,68.61l4.92,1.07a32.91,32.91,0,0,1,6.47,2.23,12.66,12.66,0,0,1,4.92,4,11.41,11.41,0,0,1,1.88,6.88,10.56,10.56,0,0,1-1.48,5.56,12.86,12.86,0,0,1-4,4.11A19.74,19.74,0,0,1,67.13,95a23.6,23.6,0,0,1-6.44.88H21.62V30.48a26,26,0,0,1,26-25.8h9A25.82,25.82,0,0,1,82.44,30.59L82.35,54"/><path class="cls-1" d="M32.91,33.79a9.89,9.89,0,0,1,.71-3.91,7.7,7.7,0,0,1,1.87-2.71,7.59,7.59,0,0,1,2.58-1.57,8.37,8.37,0,0,1,2.86-.5,8.48,8.48,0,0,1,2.88.5,7.43,7.43,0,0,1,4.45,4.28A10.08,10.08,0,0,1,49,33.79v2.84h-3V33.79a7.38,7.38,0,0,0-.74-3.52,5,5,0,0,0-1.89-2,4.51,4.51,0,0,0-4.7,0,4.9,4.9,0,0,0-1.9,2A7.27,7.27,0,0,0,36,33.79l-.2,2.84H32.91Z"/><path class="cls-1" d="M56.09,33.79a9.89,9.89,0,0,1,.71-3.91,7.57,7.57,0,0,1,1.87-2.71,7.5,7.5,0,0,1,2.58-1.57,8.33,8.33,0,0,1,2.86-.5,8.48,8.48,0,0,1,2.88.5,7.67,7.67,0,0,1,2.6,1.57,7.53,7.53,0,0,1,1.85,2.71,10.08,10.08,0,0,1,.69,3.91v2.84h-3V33.79a7.38,7.38,0,0,0-.74-3.52,5,5,0,0,0-1.89-2,4.51,4.51,0,0,0-4.7,0,4.92,4.92,0,0,0-1.91,2,7.38,7.38,0,0,0-.74,3.52l-.19,2.84H56.09Z"/></svg>