<svg id="Layer_1" data-name="Layer 1" xmlns="http://www.w3.org/2000/svg" viewBox="0 0 170 50"><defs><style>.cls-1,.cls-2{fill:#231f20;}.cls-2{font-size:31.59px;font-family:AtkinsonHyperlegible-Regular, Atkinson Hyperlegible;}.cls-3{letter-spacing:-0.01em;}</style></defs><path class="cls-1" d="M26.45,22.83l7.38-.16V14.15A10.24,10.24,0,0,0,23.59,3.91H19.9A10.24,10.24,0,0,0,9.66,14.15h0v28H25.74a6.88,6.88,0,0,0,2.4-.41A4.2,4.2,0,0,0,30,40.53a3.14,3.14,0,0,0,.71-2.1,2.49,2.49,0,0,0-.95-2A9.08,9.08,0,0,0,26.47,35l-2.69-.6a18,18,0,0,1-2.86-1,5.86,5.86,0,0,1-2.3-1.8,5,5,0,0,1-.91-3.13,4.44,4.44,0,0,1,1.13-3.06,7,7,0,0,1,2.9-1.93,10.64,10.64,0,0,1,3.72-.66Zm9.32,2.25-10.44.24a6.6,6.6,0,0,0-2.18.36,4.23,4.23,0,0,0-1.71,1.09,2.65,2.65,0,0,0-.66,1.84,2.26,2.26,0,0,0,.62,1.67,4.27,4.27,0,0,0,1.64,1,19.17,19.17,0,0,0,2.26.64l2.3.51a15.55,15.55,0,0,1,3,1,6,6,0,0,1,2.3,1.87,5.3,5.3,0,0,1,.89,3.22,4.91,4.91,0,0,1-.7,2.61,6,6,0,0,1-1.86,1.92,9.34,9.34,0,0,1-2.64,1.19,11.34,11.34,0,0,1-3,.41H7.29V14.05A12.17,12.17,0,0,1,19.48,2h4.23A12.11,12.11,0,0,1,35.81,14.1l0,11"/><path class="cls-1" d="M12.59,15.6a4.6,4.6,0,0,1,.33-1.83,3.48,3.48,0,0,1,.88-1.27A3.38,3.38,0,0,1,15,11.76a3.91,3.91,0,0,1,1.34-.24,4,4,0,0,1,1.35.24,3.51,3.51,0,0,1,1.22.74,3.44,3.44,0,0,1,.86,1.27,4.6,4.6,0,0,1,.33,1.83v1.33H18.69V15.6A3.48,3.48,0,0,0,18.34,14a2.35,2.35,0,0,0-.89-.95,2.21,2.21,0,0,0-1.1-.31,2.26,2.26,0,0,0-1.1.31,2.35,2.35,0,0,0-.89.95A3.48,3.48,0,0,0,14,15.6l-.09,1.33H12.59Z"/><path class="cls-1" d="M23.46,15.6a4.6,4.6,0,0,1,.33-1.83,3.54,3.54,0,0,1,2.08-2,4,4,0,0,1,1.35-.24,4,4,0,0,1,1.35.24,3.47,3.47,0,0,1,1.21.74,3.34,3.34,0,0,1,.87,1.27A4.6,4.6,0,0,1,31,15.6v1.33H29.55V15.6A3.48,3.48,0,0,0,29.21,14a2.41,2.41,0,0,0-.89-.95,2.24,2.24,0,0,0-1.1-.31,2.28,2.28,0,0,0-2,1.26,3.36,3.36,0,0,0-.35,1.65l-.09,1.33H23.46Z"/><text class="cls-2" transform="translate(35.03 44.26)">hyG<tspan class="cls-3" x="53.23" y="0">h</tspan><tspan x="70.14" y="0">osts </tspan></text></svg>