<?xml version="1.0" encoding="utf-8"?>
<!-- Generator: Adobe Illustrator 26.0.3, SVG Export Plug-In . SVG Version: 6.00 Build 0)  -->
<svg version="1.1"
	 id="Layer_1" image-rendering="optimizeQuality" shape-rendering="geometricPrecision" text-rendering="geometricPrecision"
	 xmlns="http://www.w3.org/2000/svg" xmlns:xlink="http://www.w3.org/1999/xlink" x="0px" y="0px" viewBox="0 0 8192 8192"
	 style="enable-background:new 0 0 8192 8192;" xml:space="preserve">
<style type="text/css">
	.st0{fill-rule:evenodd;clip-rule:evenodd;}
</style>
<path class="st0" d="M7423.9,0H768.1C345.8,0,0,345.7,0,768.1v6655.7C0,7846.2,345.8,8192,768.1,8192h6655.7
	c422.4,0,768.1-345.7,768.1-768.1l0-6655.8C8192,345.7,7846.3,0,7423.9,0L7423.9,0z M2639.6,2310.3v2782.1h927.2v527.3
	c14.3-13.7,22.4-21,30.1-28.7c156.4-156,313.1-311.6,468.5-468.5c22.2-22.4,44.3-31.5,75.8-31.4c324,1.1,648.1,1.3,972.1-0.6
	c23.8-0.1,53.4-12.4,70.3-29.2c202-199.2,401.8-400.8,603.3-600.5c22.6-22.4,30.8-44.7,30.7-75.9c-0.8-675.5-0.6-1351-0.6-2026.5
	v-48.3L2639.6,2310.3L2639.6,2310.3z M5148.2,4289.2h-384.8V3111.7h384.8V4289.2z M4094,3111.8v1175.9h-391.8V3111.8H4094z
	 M3041.7,6271v-521H1986.4c-1.1-21.8-2.6-38.7-2.6-55.6l-0.1-781.1v-597.3c0.1-520.7,0.3-1041.5,0.6-1562.3c0-28.4,5-57.9,13.9-84.8
	c77.8-236.6,157.6-472.6,234.9-709.4c10-30.7,22.7-41.7,55.4-42h1.6c1291.4,1,2582.8,0.9,3874.3,0.9c12.7,0,25.3,0,43.3,0v54.7
	c0,844.8-0.2,1689.7,0.8,2534.5v1.6c-0.3,34.4-10.8,58.3-35.2,82.7c-374.7,373.2-748.6,747.1-1121.8,1121.8
	c-24.7,24.8-49,35.2-84.3,35c-227.3-1.6-454.7,0.2-682-1.8c-43.5-0.4-74.7,11-105.7,42.7c-150,153.3-302.1,304.4-454.7,455
	c-14.5,14.3-37.3,28.5-56.4,28.7c-95.2,0.9-190.4,1.3-285.7,1.3h-57.1c-88.9,0-177.8-0.2-266.6-0.3
	C3054.4,6274.2,3049.9,6272.6,3041.7,6271L3041.7,6271z"/>
</svg>
