<svg id="Layer_1" data-name="Layer 1" xmlns="http://www.w3.org/2000/svg" viewBox="0 0 100 100"><defs><style>.cls-1{fill:none;stroke:#231f20;stroke-miterlimit:10;stroke-width:4px;}.cls-2{fill:#231f20;}</style></defs><path class="cls-1" d="M87,85.51a3,3,0,0,1,0,.42c0,.63,0,1.26-.09,1.91-.39,3.84-3.78,6.8-7.41,7.53-5.26,1.07-7.82-1.76-10.7-5.62-1.13-1.53-3.54-2.11-5.34-1.86-5.35.76-4.89,7.39-9.51,9.33a8.72,8.72,0,0,1-8.55-1.06c-4.08-3.17-6.49-8.73-12.62-5.37-3.5,1.93-4.76,4.82-9.18,4.76A9.36,9.36,0,0,1,14.34,88a9.8,9.8,0,0,1-.15-1.64c0-3.53,2.86-7.35,3.85-10.77a59.23,59.23,0,0,0,2.1-12.54c.53-7.84-.21-15.62-.73-23.43-.48-7.23-.15-14.71,3.51-21.15a32.11,32.11,0,0,1,24.78-16c1-.08,1.93-.13,2.9-.13A31.84,31.84,0,0,1,82.21,30.47a40.39,40.39,0,0,1,.5,8.78,10.09,10.09,0,0,1-3,6.49c-6.08,5.48-15.16-.82-21.87-1.25C52.06,44.11,47,49.61,47,55.23a11,11,0,0,0,5.12,9.21c4.09,2.57,9.24,1.19,13.8,1.31C77.58,66.07,87,73.52,87,85.51Z"/><path class="cls-2" d="M30,29a10.61,10.61,0,0,1,.76-4.2,8.39,8.39,0,0,1,2-2.91,8.12,8.12,0,0,1,2.77-1.68,8.9,8.9,0,0,1,3.08-.55,9,9,0,0,1,3.09.55,8,8,0,0,1,4.78,4.59,10.79,10.79,0,0,1,.75,4.2v1.48a1.58,1.58,0,0,1-1.58,1.58h-.11A1.57,1.57,0,0,1,44,30.48V29a7.91,7.91,0,0,0-.8-3.78,5.35,5.35,0,0,0-2-2.17,4.84,4.84,0,0,0-5.05,0,5.3,5.3,0,0,0-2,2.17,7.79,7.79,0,0,0-.8,3.78l-.11,1.58a1.58,1.58,0,0,1-1.57,1.48h0A1.58,1.58,0,0,1,30,30.48Z"/><path class="cls-2" d="M53.89,29a10.61,10.61,0,0,1,.76-4.2,8.39,8.39,0,0,1,2-2.91,8.12,8.12,0,0,1,2.77-1.68,8.9,8.9,0,0,1,3.08-.55,9,9,0,0,1,3.09.55,8,8,0,0,1,4.78,4.59,10.8,10.8,0,0,1,.74,4.2v1.48a1.57,1.57,0,0,1-1.57,1.58h-.11a1.58,1.58,0,0,1-1.58-1.58V29a7.91,7.91,0,0,0-.79-3.78,5.35,5.35,0,0,0-2-2.17,4.84,4.84,0,0,0-5.05,0,5.39,5.39,0,0,0-2.05,2.17A7.91,7.91,0,0,0,57.15,29L57,30.58a1.58,1.58,0,0,1-1.57,1.48h0a1.58,1.58,0,0,1-1.58-1.58Z"/></svg>